<mxfile host="app.diagrams.net" modified="2023-12-24T04:47:36.259Z" agent="Mozilla/5.0 (Windows NT 10.0; Win64; x64) AppleWebKit/537.36 (KHTML, like Gecko) Chrome/118.0.0.0 Safari/537.36" etag="DFd4ihStl92DtptB-tzn" version="22.1.11" type="device">
  <diagram name="Trang-1" id="hTGpVkFsc47ma6_l-yXX">
    <mxGraphModel dx="1419" dy="1308" grid="1" gridSize="10" guides="1" tooltips="1" connect="1" arrows="1" fold="1" page="1" pageScale="1" pageWidth="583" pageHeight="827" background="#FFFFFF" math="0" shadow="0">
      <root>
        <mxCell id="0" />
        <mxCell id="1" parent="0" />
        <mxCell id="VaghM24qHKZLZuUMwbNJ-3" value="&lt;div style=&quot;&quot;&gt;:Giao diện phần mượn sách&lt;/div&gt;" style="text;html=1;align=center;verticalAlign=middle;resizable=0;points=[];autosize=1;strokeColor=none;fillColor=none;" parent="1" vertex="1">
          <mxGeometry y="-20" width="170" height="30" as="geometry" />
        </mxCell>
        <mxCell id="VaghM24qHKZLZuUMwbNJ-6" value=":Sever" style="text;html=1;align=center;verticalAlign=middle;resizable=0;points=[];autosize=1;strokeColor=none;fillColor=none;" parent="1" vertex="1">
          <mxGeometry x="210" y="10" width="60" height="30" as="geometry" />
        </mxCell>
        <mxCell id="VaghM24qHKZLZuUMwbNJ-19" value="" style="shape=umlLifeline;perimeter=lifelinePerimeter;whiteSpace=wrap;html=1;container=1;dropTarget=0;collapsible=0;recursiveResize=0;outlineConnect=0;portConstraint=eastwest;newEdgeStyle={&quot;curved&quot;:0,&quot;rounded&quot;:0};participant=umlActor;size=80;" parent="1" vertex="1">
          <mxGeometry x="-200" y="30" width="80" height="200" as="geometry" />
        </mxCell>
        <mxCell id="VaghM24qHKZLZuUMwbNJ-21" value="" style="shape=umlLifeline;perimeter=lifelinePerimeter;whiteSpace=wrap;html=1;container=1;dropTarget=0;collapsible=0;recursiveResize=0;outlineConnect=0;portConstraint=eastwest;newEdgeStyle={&quot;curved&quot;:0,&quot;rounded&quot;:0};participant=umlBoundary;size=80;" parent="1" vertex="1">
          <mxGeometry x="40" width="80" height="480" as="geometry" />
        </mxCell>
        <mxCell id="VaghM24qHKZLZuUMwbNJ-22" value="" style="shape=umlLifeline;perimeter=lifelinePerimeter;whiteSpace=wrap;html=1;container=1;dropTarget=0;collapsible=0;recursiveResize=0;outlineConnect=0;portConstraint=eastwest;newEdgeStyle={&quot;curved&quot;:0,&quot;rounded&quot;:0};participant=umlEntity;size=80;" parent="1" vertex="1">
          <mxGeometry x="360" y="-10" width="80" height="490" as="geometry" />
        </mxCell>
        <mxCell id="VaghM24qHKZLZuUMwbNJ-23" value="" style="shape=umlLifeline;perimeter=lifelinePerimeter;whiteSpace=wrap;html=1;container=1;dropTarget=0;collapsible=0;recursiveResize=0;outlineConnect=0;portConstraint=eastwest;newEdgeStyle={&quot;curved&quot;:0,&quot;rounded&quot;:0};participant=umlControl;size=80;" parent="1" vertex="1">
          <mxGeometry x="200" width="80" height="480" as="geometry" />
        </mxCell>
        <mxCell id="VaghM24qHKZLZuUMwbNJ-24" value="" style="rounded=0;whiteSpace=wrap;html=1;" parent="1" vertex="1">
          <mxGeometry x="-180" y="200" width="40" height="90" as="geometry" />
        </mxCell>
        <mxCell id="VaghM24qHKZLZuUMwbNJ-26" value="" style="rounded=0;whiteSpace=wrap;html=1;" parent="1" vertex="1">
          <mxGeometry x="60" y="200" width="40" height="110" as="geometry" />
        </mxCell>
        <mxCell id="VaghM24qHKZLZuUMwbNJ-27" value="" style="rounded=0;whiteSpace=wrap;html=1;" parent="1" vertex="1">
          <mxGeometry x="220" y="240" width="40" height="120" as="geometry" />
        </mxCell>
        <mxCell id="VaghM24qHKZLZuUMwbNJ-28" value="" style="rounded=0;whiteSpace=wrap;html=1;" parent="1" vertex="1">
          <mxGeometry x="380" y="250" width="40" height="110" as="geometry" />
        </mxCell>
        <mxCell id="VaghM24qHKZLZuUMwbNJ-33" value="&lt;blockquote style=&quot;margin: 0px 0px 0px 40px; border: none; padding: 0px; font-size: 13px;&quot;&gt;&lt;blockquote style=&quot;margin: 0px 0px 0px 40px; border: none; padding: 0px; font-size: 13px;&quot;&gt;&lt;div style=&quot;text-align: justify; font-size: 13px;&quot;&gt;&lt;span style=&quot;font-size: 14px;&quot;&gt;1.Truy cập vào sách đã mượn&lt;/span&gt;&lt;/div&gt;&lt;/blockquote&gt;&lt;/blockquote&gt;" style="text;html=1;align=right;verticalAlign=middle;resizable=0;points=[];autosize=1;strokeColor=none;fillColor=none;strokeWidth=0;fontSize=13;" parent="1" vertex="1">
          <mxGeometry x="-240" y="180" width="290" height="30" as="geometry" />
        </mxCell>
        <mxCell id="LxiGU1nbuJbYAhLHd8rD-2" value=":Người Dùng" style="text;html=1;align=center;verticalAlign=middle;resizable=0;points=[];autosize=1;strokeColor=none;fillColor=none;" vertex="1" parent="1">
          <mxGeometry x="-200" y="-10" width="90" height="30" as="geometry" />
        </mxCell>
        <mxCell id="LxiGU1nbuJbYAhLHd8rD-6" value="" style="endArrow=classic;html=1;rounded=0;entryX=1;entryY=0.5;entryDx=0;entryDy=0;exitX=0.034;exitY=0.417;exitDx=0;exitDy=0;exitPerimeter=0;" edge="1" parent="1" source="VaghM24qHKZLZuUMwbNJ-26" target="VaghM24qHKZLZuUMwbNJ-24">
          <mxGeometry width="50" height="50" relative="1" as="geometry">
            <mxPoint x="60" y="300" as="sourcePoint" />
            <mxPoint x="220" y="250" as="targetPoint" />
          </mxGeometry>
        </mxCell>
        <mxCell id="LxiGU1nbuJbYAhLHd8rD-7" value="&lt;font style=&quot;font-size: 14px;&quot;&gt;2.Chọn sách muốn đánh giá&lt;/font&gt;" style="text;html=1;align=center;verticalAlign=middle;resizable=0;points=[];autosize=1;strokeColor=none;fillColor=none;" vertex="1" parent="1">
          <mxGeometry x="-140" y="220" width="200" height="30" as="geometry" />
        </mxCell>
        <mxCell id="LxiGU1nbuJbYAhLHd8rD-8" style="edgeStyle=orthogonalEdgeStyle;rounded=0;orthogonalLoop=1;jettySize=auto;html=1;exitX=0.5;exitY=1;exitDx=0;exitDy=0;" edge="1" parent="1" source="VaghM24qHKZLZuUMwbNJ-24" target="VaghM24qHKZLZuUMwbNJ-24">
          <mxGeometry relative="1" as="geometry" />
        </mxCell>
        <mxCell id="LxiGU1nbuJbYAhLHd8rD-12" value="" style="endArrow=classic;html=1;rounded=0;exitX=1.1;exitY=0.189;exitDx=0;exitDy=0;exitPerimeter=0;entryX=-0.025;entryY=0.155;entryDx=0;entryDy=0;entryPerimeter=0;" edge="1" parent="1" source="VaghM24qHKZLZuUMwbNJ-24" target="VaghM24qHKZLZuUMwbNJ-26">
          <mxGeometry width="50" height="50" relative="1" as="geometry">
            <mxPoint x="170" y="300" as="sourcePoint" />
            <mxPoint x="220" y="250" as="targetPoint" />
          </mxGeometry>
        </mxCell>
        <mxCell id="LxiGU1nbuJbYAhLHd8rD-16" style="edgeStyle=orthogonalEdgeStyle;rounded=0;orthogonalLoop=1;jettySize=auto;html=1;exitX=0.5;exitY=1;exitDx=0;exitDy=0;" edge="1" parent="1" source="VaghM24qHKZLZuUMwbNJ-27" target="VaghM24qHKZLZuUMwbNJ-27">
          <mxGeometry relative="1" as="geometry" />
        </mxCell>
        <mxCell id="LxiGU1nbuJbYAhLHd8rD-17" value=":Sever" style="text;html=1;align=center;verticalAlign=middle;resizable=0;points=[];autosize=1;strokeColor=none;fillColor=none;" vertex="1" parent="1">
          <mxGeometry x="210" y="-20" width="60" height="30" as="geometry" />
        </mxCell>
        <mxCell id="LxiGU1nbuJbYAhLHd8rD-18" value=":CSDL" style="text;html=1;align=center;verticalAlign=middle;resizable=0;points=[];autosize=1;strokeColor=none;fillColor=none;" vertex="1" parent="1">
          <mxGeometry x="370" y="-30" width="60" height="30" as="geometry" />
        </mxCell>
        <mxCell id="LxiGU1nbuJbYAhLHd8rD-19" value="" style="endArrow=classic;html=1;rounded=0;exitX=1;exitY=0.5;exitDx=0;exitDy=0;entryX=0.06;entryY=0.117;entryDx=0;entryDy=0;entryPerimeter=0;" edge="1" parent="1" source="VaghM24qHKZLZuUMwbNJ-26" target="VaghM24qHKZLZuUMwbNJ-27">
          <mxGeometry width="50" height="50" relative="1" as="geometry">
            <mxPoint x="180" y="180" as="sourcePoint" />
            <mxPoint x="230" y="130" as="targetPoint" />
          </mxGeometry>
        </mxCell>
        <mxCell id="LxiGU1nbuJbYAhLHd8rD-20" value="4.Gửi yêu câu dữ liệu" style="text;html=1;align=center;verticalAlign=middle;resizable=0;points=[];autosize=1;strokeColor=none;fillColor=none;" vertex="1" parent="1">
          <mxGeometry x="90" y="210" width="140" height="30" as="geometry" />
        </mxCell>
        <mxCell id="LxiGU1nbuJbYAhLHd8rD-21" style="edgeStyle=orthogonalEdgeStyle;rounded=0;orthogonalLoop=1;jettySize=auto;html=1;exitX=0.5;exitY=1;exitDx=0;exitDy=0;" edge="1" parent="1" source="VaghM24qHKZLZuUMwbNJ-27" target="VaghM24qHKZLZuUMwbNJ-27">
          <mxGeometry relative="1" as="geometry" />
        </mxCell>
        <mxCell id="LxiGU1nbuJbYAhLHd8rD-23" value="" style="endArrow=classic;html=1;rounded=0;entryX=0;entryY=0.25;entryDx=0;entryDy=0;exitX=1.017;exitY=0.33;exitDx=0;exitDy=0;exitPerimeter=0;" edge="1" parent="1" source="VaghM24qHKZLZuUMwbNJ-27" target="VaghM24qHKZLZuUMwbNJ-28">
          <mxGeometry width="50" height="50" relative="1" as="geometry">
            <mxPoint x="180" y="180" as="sourcePoint" />
            <mxPoint x="230" y="130" as="targetPoint" />
          </mxGeometry>
        </mxCell>
        <mxCell id="LxiGU1nbuJbYAhLHd8rD-24" value="5.Truy vấn dữ liệu" style="text;html=1;align=center;verticalAlign=middle;resizable=0;points=[];autosize=1;strokeColor=none;fillColor=none;" vertex="1" parent="1">
          <mxGeometry x="260" y="250" width="120" height="30" as="geometry" />
        </mxCell>
        <mxCell id="LxiGU1nbuJbYAhLHd8rD-26" value="" style="endArrow=classic;html=1;rounded=0;exitX=1.052;exitY=0.885;exitDx=0;exitDy=0;exitPerimeter=0;entryX=-0.052;entryY=0.705;entryDx=0;entryDy=0;entryPerimeter=0;" edge="1" parent="1" source="VaghM24qHKZLZuUMwbNJ-24" target="VaghM24qHKZLZuUMwbNJ-26">
          <mxGeometry width="50" height="50" relative="1" as="geometry">
            <mxPoint x="30" y="350" as="sourcePoint" />
            <mxPoint x="80" y="300" as="targetPoint" />
          </mxGeometry>
        </mxCell>
        <mxCell id="LxiGU1nbuJbYAhLHd8rD-27" value="3.Nhập nội dung đánh giá và phản hồi" style="text;html=1;align=center;verticalAlign=middle;resizable=0;points=[];autosize=1;strokeColor=none;fillColor=none;" vertex="1" parent="1">
          <mxGeometry x="-155" y="250" width="230" height="30" as="geometry" />
        </mxCell>
        <mxCell id="LxiGU1nbuJbYAhLHd8rD-29" value="" style="endArrow=classic;html=1;rounded=0;" edge="1" parent="1">
          <mxGeometry width="50" height="50" relative="1" as="geometry">
            <mxPoint x="480" y="280" as="sourcePoint" />
            <mxPoint x="420" y="280" as="targetPoint" />
          </mxGeometry>
        </mxCell>
        <mxCell id="LxiGU1nbuJbYAhLHd8rD-30" value="" style="endArrow=none;html=1;rounded=0;exitX=1.052;exitY=0.639;exitDx=0;exitDy=0;exitPerimeter=0;" edge="1" parent="1" source="VaghM24qHKZLZuUMwbNJ-28">
          <mxGeometry width="50" height="50" relative="1" as="geometry">
            <mxPoint x="310" y="350" as="sourcePoint" />
            <mxPoint x="480" y="320" as="targetPoint" />
          </mxGeometry>
        </mxCell>
        <mxCell id="LxiGU1nbuJbYAhLHd8rD-31" value="" style="endArrow=none;html=1;rounded=0;" edge="1" parent="1">
          <mxGeometry width="50" height="50" relative="1" as="geometry">
            <mxPoint x="480" y="320" as="sourcePoint" />
            <mxPoint x="480" y="280" as="targetPoint" />
          </mxGeometry>
        </mxCell>
        <mxCell id="LxiGU1nbuJbYAhLHd8rD-32" value="6.Lưu trữ dữ liệu" style="text;html=1;align=center;verticalAlign=middle;resizable=0;points=[];autosize=1;strokeColor=none;fillColor=none;" vertex="1" parent="1">
          <mxGeometry x="445" y="278" width="110" height="30" as="geometry" />
        </mxCell>
        <mxCell id="LxiGU1nbuJbYAhLHd8rD-33" value="" style="endArrow=none;dashed=1;html=1;dashPattern=1 3;strokeWidth=2;rounded=0;entryX=0.5;entryY=1;entryDx=0;entryDy=0;" edge="1" parent="1" target="VaghM24qHKZLZuUMwbNJ-24">
          <mxGeometry width="50" height="50" relative="1" as="geometry">
            <mxPoint x="-160" y="480" as="sourcePoint" />
            <mxPoint x="100" y="190" as="targetPoint" />
          </mxGeometry>
        </mxCell>
        <mxCell id="LxiGU1nbuJbYAhLHd8rD-34" value="" style="html=1;verticalAlign=bottom;endArrow=open;dashed=1;endSize=8;curved=0;rounded=0;" edge="1" parent="1">
          <mxGeometry relative="1" as="geometry">
            <mxPoint x="399.5" y="399.9999999999998" as="sourcePoint" />
            <mxPoint x="240" y="400" as="targetPoint" />
          </mxGeometry>
        </mxCell>
        <mxCell id="LxiGU1nbuJbYAhLHd8rD-35" value="7.Trả về kết quả" style="edgeLabel;html=1;align=center;verticalAlign=middle;resizable=0;points=[];" vertex="1" connectable="0" parent="LxiGU1nbuJbYAhLHd8rD-34">
          <mxGeometry x="-0.0377" y="-7" relative="1" as="geometry">
            <mxPoint as="offset" />
          </mxGeometry>
        </mxCell>
        <mxCell id="LxiGU1nbuJbYAhLHd8rD-37" value="" style="html=1;verticalAlign=bottom;endArrow=open;dashed=1;endSize=8;curved=0;rounded=0;exitX=0.5;exitY=0.919;exitDx=0;exitDy=0;exitPerimeter=0;" edge="1" parent="1">
          <mxGeometry x="-0.2509" y="59" relative="1" as="geometry">
            <mxPoint x="240.09" y="420.0000000000001" as="sourcePoint" />
            <mxPoint x="79.90034482758628" y="420.0000000000001" as="targetPoint" />
            <mxPoint as="offset" />
          </mxGeometry>
        </mxCell>
        <mxCell id="LxiGU1nbuJbYAhLHd8rD-38" value="Trả về kết quả" style="text;html=1;align=center;verticalAlign=middle;resizable=0;points=[];autosize=1;strokeColor=none;fillColor=none;" vertex="1" parent="1">
          <mxGeometry x="100" y="388" width="100" height="30" as="geometry" />
        </mxCell>
        <mxCell id="LxiGU1nbuJbYAhLHd8rD-39" value="Hiện thị đã đánh giá thành công" style="html=1;verticalAlign=bottom;endArrow=open;dashed=1;endSize=8;curved=0;rounded=0;" edge="1" parent="1" source="VaghM24qHKZLZuUMwbNJ-21">
          <mxGeometry relative="1" as="geometry">
            <mxPoint x="110" y="330" as="sourcePoint" />
            <mxPoint x="-160" y="450" as="targetPoint" />
          </mxGeometry>
        </mxCell>
        <mxCell id="LxiGU1nbuJbYAhLHd8rD-40" value="" style="shape=umlLifeline;perimeter=lifelinePerimeter;whiteSpace=wrap;html=1;container=1;dropTarget=0;collapsible=0;recursiveResize=0;outlineConnect=0;portConstraint=eastwest;newEdgeStyle={&quot;curved&quot;:0,&quot;rounded&quot;:0};participant=umlActor;size=80;" vertex="1" parent="1">
          <mxGeometry x="-195" y="520" width="75" height="440" as="geometry" />
        </mxCell>
        <mxCell id="LxiGU1nbuJbYAhLHd8rD-42" value="" style="shape=umlLifeline;perimeter=lifelinePerimeter;whiteSpace=wrap;html=1;container=1;dropTarget=0;collapsible=0;recursiveResize=0;outlineConnect=0;portConstraint=eastwest;newEdgeStyle={&quot;curved&quot;:0,&quot;rounded&quot;:0};participant=umlBoundary;size=80;" vertex="1" parent="1">
          <mxGeometry x="40" y="520" width="80" height="450" as="geometry" />
        </mxCell>
        <mxCell id="LxiGU1nbuJbYAhLHd8rD-43" value="" style="shape=umlLifeline;perimeter=lifelinePerimeter;whiteSpace=wrap;html=1;container=1;dropTarget=0;collapsible=0;recursiveResize=0;outlineConnect=0;portConstraint=eastwest;newEdgeStyle={&quot;curved&quot;:0,&quot;rounded&quot;:0};participant=umlEntity;size=80;" vertex="1" parent="1">
          <mxGeometry x="400" y="520" width="80" height="430" as="geometry" />
        </mxCell>
        <mxCell id="LxiGU1nbuJbYAhLHd8rD-44" value="" style="shape=umlLifeline;perimeter=lifelinePerimeter;whiteSpace=wrap;html=1;container=1;dropTarget=0;collapsible=0;recursiveResize=0;outlineConnect=0;portConstraint=eastwest;newEdgeStyle={&quot;curved&quot;:0,&quot;rounded&quot;:0};participant=umlControl;size=80;" vertex="1" parent="1">
          <mxGeometry x="240" y="520" width="80" height="440" as="geometry" />
        </mxCell>
        <mxCell id="LxiGU1nbuJbYAhLHd8rD-45" value="" style="html=1;points=[[0,0,0,0,5],[0,1,0,0,-5],[1,0,0,0,5],[1,1,0,0,-5]];perimeter=orthogonalPerimeter;outlineConnect=0;targetShapes=umlLifeline;portConstraint=eastwest;newEdgeStyle={&quot;curved&quot;:0,&quot;rounded&quot;:0};" vertex="1" parent="1">
          <mxGeometry x="-175" y="640" width="30" height="80" as="geometry" />
        </mxCell>
        <mxCell id="LxiGU1nbuJbYAhLHd8rD-46" value="" style="html=1;points=[[0,0,0,0,5],[0,1,0,0,-5],[1,0,0,0,5],[1,1,0,0,-5]];perimeter=orthogonalPerimeter;outlineConnect=0;targetShapes=umlLifeline;portConstraint=eastwest;newEdgeStyle={&quot;curved&quot;:0,&quot;rounded&quot;:0};" vertex="1" parent="1">
          <mxGeometry x="65" y="660" width="30" height="80" as="geometry" />
        </mxCell>
        <mxCell id="LxiGU1nbuJbYAhLHd8rD-47" value="" style="html=1;points=[[0,0,0,0,5],[0,1,0,0,-5],[1,0,0,0,5],[1,1,0,0,-5]];perimeter=orthogonalPerimeter;outlineConnect=0;targetShapes=umlLifeline;portConstraint=eastwest;newEdgeStyle={&quot;curved&quot;:0,&quot;rounded&quot;:0};" vertex="1" parent="1">
          <mxGeometry x="265" y="700" width="30" height="80" as="geometry" />
        </mxCell>
        <mxCell id="LxiGU1nbuJbYAhLHd8rD-48" value="" style="html=1;points=[[0,0,0,0,5],[0,1,0,0,-5],[1,0,0,0,5],[1,1,0,0,-5]];perimeter=orthogonalPerimeter;outlineConnect=0;targetShapes=umlLifeline;portConstraint=eastwest;newEdgeStyle={&quot;curved&quot;:0,&quot;rounded&quot;:0};" vertex="1" parent="1">
          <mxGeometry x="425" y="740" width="30" height="80" as="geometry" />
        </mxCell>
        <mxCell id="LxiGU1nbuJbYAhLHd8rD-49" value="" style="endArrow=open;endFill=1;endSize=12;html=1;rounded=0;" edge="1" parent="1">
          <mxGeometry width="160" relative="1" as="geometry">
            <mxPoint x="-147.5" y="670" as="sourcePoint" />
            <mxPoint x="67.5" y="670" as="targetPoint" />
          </mxGeometry>
        </mxCell>
        <mxCell id="LxiGU1nbuJbYAhLHd8rD-50" value="1.Truy cập vào Quản lý tài khoản" style="text;html=1;align=center;verticalAlign=middle;resizable=0;points=[];autosize=1;strokeColor=none;fillColor=none;" vertex="1" parent="1">
          <mxGeometry x="-150" y="648" width="200" height="30" as="geometry" />
        </mxCell>
        <mxCell id="LxiGU1nbuJbYAhLHd8rD-51" value=":Quản trị viên" style="text;html=1;align=center;verticalAlign=middle;resizable=0;points=[];autosize=1;strokeColor=none;fillColor=none;" vertex="1" parent="1">
          <mxGeometry x="-215" y="478" width="90" height="30" as="geometry" />
        </mxCell>
        <mxCell id="LxiGU1nbuJbYAhLHd8rD-52" value=":Giao diện quản lý" style="text;html=1;align=center;verticalAlign=middle;resizable=0;points=[];autosize=1;strokeColor=none;fillColor=none;" vertex="1" parent="1">
          <mxGeometry x="30" y="478" width="120" height="30" as="geometry" />
        </mxCell>
        <mxCell id="LxiGU1nbuJbYAhLHd8rD-53" value=":Sever" style="text;html=1;align=center;verticalAlign=middle;resizable=0;points=[];autosize=1;strokeColor=none;fillColor=none;" vertex="1" parent="1">
          <mxGeometry x="250" y="488" width="60" height="30" as="geometry" />
        </mxCell>
        <mxCell id="LxiGU1nbuJbYAhLHd8rD-54" value="" style="endArrow=open;endFill=1;endSize=12;html=1;rounded=0;" edge="1" parent="1" source="LxiGU1nbuJbYAhLHd8rD-46">
          <mxGeometry width="160" relative="1" as="geometry">
            <mxPoint x="120" y="720" as="sourcePoint" />
            <mxPoint x="270" y="720" as="targetPoint" />
          </mxGeometry>
        </mxCell>
        <mxCell id="LxiGU1nbuJbYAhLHd8rD-55" value="2.Gửi yêu cầu dữ liệu" style="text;html=1;align=center;verticalAlign=middle;resizable=0;points=[];autosize=1;strokeColor=none;fillColor=none;" vertex="1" parent="1">
          <mxGeometry x="110" y="690" width="140" height="30" as="geometry" />
        </mxCell>
        <mxCell id="LxiGU1nbuJbYAhLHd8rD-57" value="" style="endArrow=open;endFill=1;endSize=12;html=1;rounded=0;" edge="1" parent="1">
          <mxGeometry width="160" relative="1" as="geometry">
            <mxPoint x="295" y="760" as="sourcePoint" />
            <mxPoint x="425" y="760" as="targetPoint" />
          </mxGeometry>
        </mxCell>
        <mxCell id="LxiGU1nbuJbYAhLHd8rD-58" value="3.Tuy vấn dữ liệu" style="text;html=1;align=center;verticalAlign=middle;resizable=0;points=[];autosize=1;strokeColor=none;fillColor=none;" vertex="1" parent="1">
          <mxGeometry x="292" y="725" width="120" height="30" as="geometry" />
        </mxCell>
        <mxCell id="LxiGU1nbuJbYAhLHd8rD-59" value=":CSDL" style="text;html=1;align=center;verticalAlign=middle;resizable=0;points=[];autosize=1;strokeColor=none;fillColor=none;" vertex="1" parent="1">
          <mxGeometry x="400" y="478" width="60" height="30" as="geometry" />
        </mxCell>
        <mxCell id="LxiGU1nbuJbYAhLHd8rD-60" value="4.Hiện thị thông tin cá nhân&amp;nbsp;" style="html=1;verticalAlign=bottom;endArrow=open;dashed=1;endSize=8;curved=0;rounded=0;" edge="1" parent="1" target="LxiGU1nbuJbYAhLHd8rD-44">
          <mxGeometry relative="1" as="geometry">
            <mxPoint x="440" y="840" as="sourcePoint" />
            <mxPoint x="160.5" y="840" as="targetPoint" />
          </mxGeometry>
        </mxCell>
        <mxCell id="LxiGU1nbuJbYAhLHd8rD-64" value="" style="endArrow=open;endFill=1;endSize=12;html=1;rounded=0;" edge="1" parent="1">
          <mxGeometry width="160" relative="1" as="geometry">
            <mxPoint x="520" y="780" as="sourcePoint" />
            <mxPoint x="455" y="780" as="targetPoint" />
          </mxGeometry>
        </mxCell>
        <mxCell id="LxiGU1nbuJbYAhLHd8rD-65" value="" style="endArrow=none;html=1;rounded=0;" edge="1" parent="1">
          <mxGeometry width="50" height="50" relative="1" as="geometry">
            <mxPoint x="520" y="810" as="sourcePoint" />
            <mxPoint x="520" y="780" as="targetPoint" />
          </mxGeometry>
        </mxCell>
        <mxCell id="LxiGU1nbuJbYAhLHd8rD-66" value="" style="endArrow=none;html=1;rounded=0;" edge="1" parent="1">
          <mxGeometry width="50" height="50" relative="1" as="geometry">
            <mxPoint x="460" y="810" as="sourcePoint" />
            <mxPoint x="520" y="810" as="targetPoint" />
          </mxGeometry>
        </mxCell>
        <mxCell id="LxiGU1nbuJbYAhLHd8rD-67" value="4.Xử lý dữ&amp;nbsp; liệu" style="text;html=1;align=center;verticalAlign=middle;resizable=0;points=[];autosize=1;strokeColor=none;fillColor=none;" vertex="1" parent="1">
          <mxGeometry x="520" y="780" width="100" height="30" as="geometry" />
        </mxCell>
        <mxCell id="LxiGU1nbuJbYAhLHd8rD-68" value="Hiện thị thông tin cá nhân" style="html=1;verticalAlign=bottom;endArrow=open;dashed=1;endSize=8;curved=0;rounded=0;" edge="1" parent="1">
          <mxGeometry relative="1" as="geometry">
            <mxPoint x="280" y="880" as="sourcePoint" />
            <mxPoint x="80" y="880" as="targetPoint" />
          </mxGeometry>
        </mxCell>
        <mxCell id="LxiGU1nbuJbYAhLHd8rD-69" value="" style="html=1;verticalAlign=bottom;endArrow=open;dashed=1;endSize=8;curved=0;rounded=0;" edge="1" parent="1">
          <mxGeometry x="-0.0779" y="115" relative="1" as="geometry">
            <mxPoint x="78.75" y="900" as="sourcePoint" />
            <mxPoint x="-158.75" y="900" as="targetPoint" />
            <mxPoint as="offset" />
          </mxGeometry>
        </mxCell>
        <mxCell id="LxiGU1nbuJbYAhLHd8rD-70" value="Chọn&#39;Lưu&#39; và thoát" style="text;html=1;align=center;verticalAlign=middle;resizable=0;points=[];autosize=1;strokeColor=none;fillColor=none;" vertex="1" parent="1">
          <mxGeometry x="-110" y="870" width="120" height="30" as="geometry" />
        </mxCell>
      </root>
    </mxGraphModel>
  </diagram>
</mxfile>
